<svg width="244" height="48" viewBox="0 0 244 48" fill="none" xmlns="http://www.w3.org/2000/svg">
<path d="M0 12H5.15021L12.5322 28.0687L19.9485 12H25.0644V36H20.0858V22.3691L13.7339 36H11.3305L5.01288 22.3691V36H0V12Z" fill="#120128"/>
<path d="M49.6196 6.24271L49.375 6.30566L49.1304 6.24271C48.7091 6.13426 48.3984 5.75111 48.3984 5.29688C48.3984 4.75753 48.8357 4.32031 49.375 4.32031C49.9143 4.32031 50.3516 4.75753 50.3516 5.29688C50.3516 5.75111 50.0409 6.13426 49.6196 6.24271ZM49.1797 10.1797H49.5703H49.7656H49.9609V10.375V10.9609H50.3516V11.2907V11.7833L50.8368 11.8679C54.2571 12.4647 56.8027 15.0933 56.982 18.221L57.0136 18.7734H57.567H58.1641V21.1172H57.5781H56.9922V21.7031V30.8786L56.7779 31.1565C56.5637 31.4339 56.2573 31.8303 55.8883 32.3059C55.1503 33.2574 54.1626 34.5256 53.1629 35.7935C52.1626 37.0621 51.1528 38.3273 50.3699 39.2741C49.9777 39.7484 49.647 40.1371 49.4048 40.4051C49.3946 40.4164 49.3846 40.4274 49.3748 40.4381C49.365 40.4274 49.355 40.4164 49.3448 40.4051C49.1027 40.1371 48.772 39.7484 48.3798 39.2741C47.5969 38.3273 46.5872 37.0621 45.5869 35.7935C44.5873 34.5256 43.5996 33.2574 42.8616 32.3059C42.4927 31.8303 42.1863 31.4339 41.9721 31.1565L41.7578 30.8786V21.7031V21.1172H41.1719H40.5859V18.7734H41.183H41.7364L41.768 18.221C41.9473 15.0933 44.4929 12.4647 47.9132 11.8679L48.3984 11.7833V11.2907V10.9609H48.7891V10.375V10.1797H48.9844H49.1797Z" fill="#EFF2F2" stroke="#120128" stroke-width="1.17188"/>
<circle cx="49.375" cy="5.29688" r="0.78125" fill="#FF7F5A"/>
<path d="M48.2031 20.5312C48.2031 21.8257 47.1538 22.875 45.8594 22.875C44.565 22.875 43.5156 21.8257 43.5156 20.5312C43.5156 19.2368 44.565 18.1875 45.8594 18.1875C47.1538 18.1875 48.2031 19.2368 48.2031 20.5312ZM44.8047 20.5312C44.8047 21.1137 45.2769 21.5859 45.8594 21.5859C46.4419 21.5859 46.9141 21.1137 46.9141 20.5312C46.9141 19.9488 46.4419 19.4766 45.8594 19.4766C45.2769 19.4766 44.8047 19.9488 44.8047 20.5312Z" fill="url(#paint0_linear_42_211)"/>
<path d="M55.2344 20.5312C55.2344 21.8257 54.185 22.875 52.8906 22.875C51.5962 22.875 50.5469 21.8257 50.5469 20.5312C50.5469 19.2368 51.5962 18.1875 52.8906 18.1875C54.185 18.1875 55.2344 19.2368 55.2344 20.5312ZM51.8359 20.5312C51.8359 21.1137 52.3081 21.5859 52.8906 21.5859C53.4731 21.5859 53.9453 21.1137 53.9453 20.5312C53.9453 19.9488 53.4731 19.4766 52.8906 19.4766C52.3081 19.4766 51.8359 19.9488 51.8359 20.5312Z" fill="url(#paint1_linear_42_211)"/>
<rect x="40.7812" y="18.1875" width="1.5625" height="2.73438" fill="#120128"/>
<rect x="56.4062" y="18.1875" width="1.5625" height="2.73438" fill="#120128"/>
<rect x="48.5938" y="11.1562" width="1.5625" height="1.17188" fill="#120128"/>
<path d="M49.375 39.6719L42.3438 30.8828L44.1016 29.5156L46.8359 31.0781L49.1797 29.5156L52.1094 31.0781L54.4531 29.5156L56.6016 30.8828L49.375 39.6719Z" fill="#F5C7A6" stroke="#120128" stroke-width="0.390625"/>
<path d="M46.25 30.3904C46.2248 30.3645 46.1991 30.3385 46.1729 30.3125C45.9386 30.0801 45.6567 29.8375 45.3474 29.6511C45.0409 29.4663 44.6805 29.3203 44.2969 29.3203C43.9132 29.3203 43.5529 29.4663 43.2463 29.6511C42.9371 29.8375 42.6552 30.0801 42.4208 30.3125C42.3946 30.3385 42.3689 30.3645 42.3438 30.3904V25.6094H46.25V30.3904Z" fill="#F46275" stroke="#120128" stroke-width="0.78125"/>
<path d="M56.4062 30.3904C56.3811 30.3645 56.3554 30.3385 56.3292 30.3125C56.0948 30.0801 55.8129 29.8375 55.5037 29.6511C55.1971 29.4663 54.8368 29.3203 54.4531 29.3203C54.0695 29.3203 53.7091 29.4663 53.4026 29.6511C53.0933 29.8375 52.8114 30.0801 52.5771 30.3125C52.5509 30.3385 52.5252 30.3645 52.5 30.3904V25.6094H56.4062V30.3904Z" fill="#F46275" stroke="#120128" stroke-width="0.78125"/>
<path d="M51.7188 30.5089C51.6404 30.4374 51.5569 30.3639 51.469 30.2903C51.1935 30.0597 50.8676 29.8214 50.5185 29.6393C50.1723 29.4587 49.7788 29.3203 49.375 29.3203C48.9712 29.3203 48.5777 29.4587 48.2315 29.6393C47.8824 29.8214 47.5565 30.0597 47.281 30.2903C47.1931 30.3639 47.1096 30.4374 47.0312 30.5089V25.6094H51.7188V30.5089Z" fill="#F46275" stroke="#120128" stroke-width="0.78125"/>
<path d="M46.211 31.6641L46.6792 32.0547L47.1875 31.6641C47.1875 31.6641 47.6533 30.8702 48.006 30.5836C48.3587 30.297 48.8371 30.1361 49.3358 30.1361C49.8346 30.1361 50.3129 30.297 50.6656 30.5836C51.0183 30.8702 51.4844 31.6641 51.4844 31.6641L51.9671 32.0547L52.5014 31.6641C52.5014 31.6641 52.9418 30.8702 53.2504 30.5836C53.559 30.297 53.9775 30.1361 54.414 30.1361C54.8504 30.1361 55.2689 30.297 55.5775 30.5836C55.8861 30.8702 56.0595 31.0635 56.0595 31.4687H57.1483C57.1483 30.7953 56.8602 30.3448 56.3475 29.8687C55.8347 29.3925 55.1392 29.125 54.414 29.125C53.6888 29.125 52.9933 29.3925 52.4805 29.8687C52.3092 30.0277 52.1629 30.2057 52.0442 30.3973C51.9084 30.2057 51.7413 30.0277 51.5455 29.8687C50.9595 29.3925 50.1646 29.125 49.3358 29.125C48.507 29.125 47.7122 29.3925 47.1261 29.8687C46.9304 30.0277 46.7633 30.2057 46.6275 30.3973C46.5087 30.2057 46.3625 30.0277 46.1912 29.8687C45.6784 29.3925 44.9829 29.125 44.2577 29.125C43.5325 29.125 42.837 29.3925 42.3242 29.8687C41.8114 30.3448 41.5235 30.7953 41.5235 31.4687L42.6123 31.4687C42.6123 31.0635 42.7855 30.8702 43.0941 30.5836C43.4027 30.297 43.8213 30.1361 44.2577 30.1361C44.6941 30.1361 45.1127 30.297 45.4213 30.5836C45.7299 30.8702 46.211 31.6641 46.211 31.6641Z" fill="#120128"/>
<path d="M52.1094 37.3281H47.0312L49.5703 40.0625L52.1094 37.3281Z" fill="#120128"/>
<path d="M52.9143 8.08678C53.2771 7.72405 53.5648 7.29343 53.7611 6.8195C53.9574 6.34557 54.0584 5.83762 54.0584 5.32464C54.0584 4.81166 53.9574 4.30371 53.7611 3.82978C53.5648 3.35585 53.277 2.92523 52.9143 2.5625L52.5 2.97682C52.8083 3.28514 53.0529 3.65117 53.2198 4.05401C53.3866 4.45685 53.4725 4.88861 53.4725 5.32464C53.4725 5.76067 53.3866 6.19243 53.2198 6.59527C53.0529 6.99811 52.8083 7.36414 52.5 7.67246L52.9143 8.08678Z" fill="#E6DCBD"/>
<path d="M54.0862 9.28641C54.6303 8.74231 55.0619 8.09638 55.3563 7.38549C55.6508 6.6746 55.8024 5.91267 55.8024 5.1432C55.8024 4.37374 55.6508 3.61181 55.3563 2.90092C55.0619 2.19003 54.6303 1.54409 54.0862 1L53.6719 1.41432C54.1616 1.904 54.55 2.48534 54.815 3.12515C55.08 3.76495 55.2164 4.45069 55.2164 5.1432C55.2164 5.83572 55.08 6.52146 54.815 7.16126C54.55 7.80106 54.1616 8.3824 53.6719 8.87209L54.0862 9.28641Z" fill="#E6DCBD"/>
<path d="M51.6596 3.73438C51.8772 3.95201 52.0499 4.21039 52.1676 4.49474C52.2854 4.7791 52.3461 5.08387 52.3461 5.39166C52.3461 5.69944 52.2854 6.00422 52.1676 6.28857C52.0499 6.57293 51.8772 6.8313 51.6596 7.04894L51.3281 6.71748C51.5022 6.54337 51.6403 6.33667 51.7346 6.10919C51.8288 5.8817 51.8773 5.63789 51.8773 5.39166C51.8773 5.14543 51.8288 4.90161 51.7346 4.67413C51.6403 4.44664 51.5022 4.23994 51.3281 4.06583L51.6596 3.73438Z" fill="#E6DCBD"/>
<path d="M45.8357 8.08678C45.4729 7.72405 45.1852 7.29343 44.9889 6.8195C44.7926 6.34557 44.6916 5.83762 44.6916 5.32464C44.6916 4.81166 44.7926 4.30371 44.9889 3.82978C45.1852 3.35585 45.473 2.92523 45.8357 2.5625L46.25 2.97682C45.9417 3.28514 45.6971 3.65117 45.5302 4.05401C45.3634 4.45685 45.2775 4.88861 45.2775 5.32464C45.2775 5.76067 45.3634 6.19243 45.5302 6.59527C45.6971 6.99811 45.9417 7.36414 46.25 7.67246L45.8357 8.08678Z" fill="#E6DCBD"/>
<path d="M44.6638 9.28641C44.1197 8.74231 43.6881 8.09638 43.3937 7.38549C43.0992 6.6746 42.9476 5.91267 42.9476 5.1432C42.9476 4.37374 43.0992 3.61181 43.3937 2.90092C43.6881 2.19003 44.1197 1.54409 44.6638 1L45.0781 1.41432C44.5884 1.904 44.2 2.48534 43.935 3.12515C43.67 3.76495 43.5336 4.45069 43.5336 5.1432C43.5336 5.83572 43.67 6.52146 43.935 7.16126C44.2 7.80106 44.5884 8.3824 45.0781 8.87209L44.6638 9.28641Z" fill="#E6DCBD"/>
<path d="M47.0904 3.73438C46.8728 3.95201 46.7001 4.21039 46.5824 4.49474C46.4646 4.7791 46.4039 5.08387 46.4039 5.39166C46.4039 5.69944 46.4646 6.00422 46.5824 6.28857C46.7001 6.57293 46.8728 6.8313 47.0904 7.04894L47.4219 6.71748C47.2478 6.54337 47.1097 6.33667 47.0154 6.10919C46.9212 5.8817 46.8727 5.63789 46.8727 5.39166C46.8727 5.14543 46.9212 4.90161 47.0154 4.67413C47.1097 4.44664 47.2478 4.23994 47.4219 4.06583L47.0904 3.73438Z" fill="#E6DCBD"/>
<path d="M73.0645 12H78.2147L85.5966 28.0687L93.0129 12H98.1288V36H93.1503V22.3691L86.7984 36H84.3949L78.0773 22.3691V36H73.0645V12Z" fill="#120128"/>
<path d="M112.129 12H128.781V16.3605H117.348V21.9227H125.76V26.1116H117.348V31.6395H128.781V36H112.129V12Z" fill="#120128"/>
<path d="M152.781 12H164.558C166.824 12 168.598 12.5608 169.88 13.6824C171.162 14.804 171.803 16.4292 171.803 18.5579C171.803 19.6338 171.551 20.618 171.047 21.5107C170.544 22.3805 169.857 23.0558 168.987 23.5365C170.178 23.9714 171.07 24.6352 171.665 25.5279C172.261 26.3977 172.558 27.5422 172.558 28.9614C172.558 30.4034 172.226 31.6624 171.562 32.7382C170.921 33.7911 170.029 34.6037 168.884 35.176C167.763 35.7253 166.515 36 165.142 36H152.781V12ZM163.562 21.7511C164.478 21.7511 165.199 21.5222 165.725 21.0644C166.252 20.6066 166.515 19.8741 166.515 18.867C166.515 17.7682 166.252 17.0129 165.725 16.6009C165.222 16.1888 164.444 15.9828 163.391 15.9828H158V21.7511H163.562ZM163.871 32.0172C164.993 32.0172 165.84 31.7997 166.412 31.3648C167.007 30.907 167.305 30.1173 167.305 28.9957C167.305 27.8512 166.996 27.0272 166.378 26.5236C165.783 26.02 164.89 25.7682 163.7 25.7682H158V32.0172H163.871Z" fill="#120128"/>
<path d="M210.558 24C210.558 30.6274 205.185 36 198.558 36C191.93 36 186.558 30.6274 186.558 24C186.558 17.3726 191.93 12 198.558 12C205.185 12 210.558 17.3726 210.558 24ZM193.158 24C193.158 26.9823 195.575 29.4 198.558 29.4C201.54 29.4 203.958 26.9823 203.958 24C203.958 21.0177 201.54 18.6 198.558 18.6C195.575 18.6 193.158 21.0177 193.158 24Z" fill="url(#paint2_linear_42_211)"/>
<path d="M231.562 16.3605H224.558V12H243.785V16.3605H236.781V36H231.562V16.3605Z" fill="#120128"/>
<defs>
<linearGradient id="paint0_linear_42_211" x1="48.2031" y1="20.5312" x2="43.5156" y2="20.5312" gradientUnits="userSpaceOnUse">
<stop stop-color="#FF8651"/>
<stop offset="1" stop-color="#FD607F"/>
</linearGradient>
<linearGradient id="paint1_linear_42_211" x1="55.2344" y1="20.5312" x2="50.5469" y2="20.5312" gradientUnits="userSpaceOnUse">
<stop stop-color="#FF8651"/>
<stop offset="1" stop-color="#FD607F"/>
</linearGradient>
<linearGradient id="paint2_linear_42_211" x1="210.558" y1="24" x2="186.558" y2="24" gradientUnits="userSpaceOnUse">
<stop stop-color="#FF8651"/>
<stop offset="1" stop-color="#FD607F"/>
</linearGradient>
</defs>
</svg>
